PS_ngait_og_ss8_kinetics.mot
version=1
nRows=27
nColumns=28
inDegrees=yes
endheader
time	1_ground_force_vx	1_ground_force_vy	1_ground_force_vz	1_ground_force_px	1_ground_force_py	1_ground_force_pz	2_ground_force_vx	2_ground_force_vy	2_ground_force_vz	2_ground_force_px	2_ground_force_py	2_ground_force_pz	3_ground_force_vx	3_ground_force_vy	3_ground_force_vz	3_ground_force_px	3_ground_force_py	3_ground_force_pz	1_ground_torque_x	1_ground_torque_y	1_ground_torque_z	2_ground_torque_x	2_ground_torque_y	2_ground_torque_z	3_ground_torque_x	3_ground_torque_y	3_ground_torque_z
  0.00000000	 14.85452436	 43.93467377	 10.11428612	  0.18267867	 -0.00600000	  0.01622720	 98.16777473	817.18594998	-59.84051519	 -0.19150149	 -0.00600000	  0.24800903	  0.00000000	  0.00000000	  0.00000000	  0.90000000	 -0.00600000	  0.20000000	  0.00000000	 -0.37523350	  0.00000000	  0.00000000	 -2.44549921	  0.00000000	  0.00000000	  0.00000000	  0.00000000
  0.00083333	 15.94162470	 48.59274762	  8.33421839	  0.18480388	 -0.00600000	  0.02656623	 98.81209973	816.75627673	-59.27245633	 -0.19141513	 -0.00600000	  0.24791636	  0.00000000	  0.00000000	  0.00000000	  0.90000000	 -0.00600000	  0.20000000	  0.00000000	 -0.33936145	  0.00000000	  0.00000000	 -2.34396503	  0.00000000	  0.00000000	  0.00000000	  0.00000000
  0.00166667	 16.99110028	 53.46515334	  6.55787959	  0.18684193	 -0.00600000	  0.03491872	 99.48049153	816.23939019	-58.69573174	 -0.19131991	 -0.00600000	  0.24782653	  0.00000000	  0.00000000	  0.00000000	  0.90000000	 -0.00600000	  0.20000000	  0.00000000	 -0.30491686	  0.00000000	  0.00000000	 -2.24320964	  0.00000000	  0.00000000	  0.00000000	  0.00000000
  0.00250000	 17.97084681	 58.53192177	  4.83564540	  0.18881310	 -0.00600000	  0.04151562	100.16990297	815.60623350	-58.12466629	 -0.19121443	 -0.00600000	  0.24774163	  0.00000000	  0.00000000	  0.00000000	  0.90000000	 -0.00600000	  0.20000000	  0.00000000	 -0.27402785	  0.00000000	  0.00000000	 -2.14546408	  0.00000000	  0.00000000	  0.00000000	  0.00000000
  0.00333333	 18.86017072	 63.77264552	  3.20338708	  0.19071668	 -0.00600000	  0.04658675	100.87883726	814.84091826	-57.56742718	 -0.19109860	 -0.00600000	  0.24766250	  0.00000000	  0.00000000	  0.00000000	  0.90000000	 -0.00600000	  0.20000000	  0.00000000	 -0.24696690	  0.00000000	  0.00000000	 -2.05213919	  0.00000000	  0.00000000	  0.00000000	  0.00000000
  0.00416667	 19.65042535	 69.16540904	  1.67373949	  0.19253523	 -0.00600000	  0.05035816	101.60515295	813.93982491	-57.02538157	 -0.19097338	 -0.00600000	  0.24758873	  0.00000000	  0.00000000	  0.00000000	  0.90000000	 -0.00600000	  0.20000000	  0.00000000	 -0.22209606	  0.00000000	  0.00000000	 -1.96369200	  0.00000000	  0.00000000	  0.00000000	  0.00000000
  0.00500000	 20.34273503	 74.68915290	  0.23780477	  0.19424471	 -0.00600000	  0.05306290	102.34418089	812.90723933	-56.49598411	 -0.19084035	 -0.00600000	  0.24751961	  0.00000000	  0.00000000	  0.00000000	  0.90000000	 -0.00600000	  0.20000000	  0.00000000	 -0.19672457	  0.00000000	  0.00000000	 -1.87976437	  0.00000000	  0.00000000	  0.00000000	  0.00000000
  0.00583333	 20.94440192	 80.32678875	 -1.12419071	  0.19582061	 -0.00600000	  0.05493821	103.08947731	811.75004608	-55.97693434	 -0.19070106	 -0.00600000	  0.24745474	  0.00000000	  0.00000000	  0.00000000	  0.90000000	 -0.00600000	  0.20000000	  0.00000000	 -0.16825483	  0.00000000	  0.00000000	 -1.79960582	  0.00000000	  0.00000000	  0.00000000	  0.00000000
  0.00666667	 21.46324787	 86.06312608	 -2.43152826	  0.19723999	 -0.00600000	  0.05621038	103.83541393	810.47359870	-55.46841620	 -0.19055655	 -0.00600000	  0.24739385	  0.00000000	  0.00000000	  0.00000000	  0.90000000	 -0.00600000	  0.20000000	  0.00000000	 -0.13529907	  0.00000000	  0.00000000	 -1.72271065	  0.00000000	  0.00000000	  0.00000000	  0.00000000
  0.00750000	 21.90150219	 91.88029660	 -3.69631171	  0.19848981	 -0.00600000	  0.05707485	104.57874575	809.08100249	-54.97273590	 -0.19040707	 -0.00600000	  0.24733647	  0.00000000	  0.00000000	  0.00000000	  0.90000000	 -0.00600000	  0.20000000	  0.00000000	 -0.09831598	  0.00000000	  0.00000000	 -1.64938630	  0.00000000	  0.00000000	  0.00000000	  0.00000000
  0.00833333	 22.25372181	 97.75723645	 -4.92322603	  0.19957559	 -0.00600000	  0.05768056	105.31823441	807.57541821	-54.49217098	 -0.19025233	 -0.00600000	  0.24728200	  0.00000000	  0.00000000	  0.00000000	  0.90000000	 -0.00600000	  0.20000000	  0.00000000	 -0.05915933	  0.00000000	  0.00000000	 -1.58073573	  0.00000000	  0.00000000	  0.00000000	  0.00000000
  0.00916667	 22.50936537	103.67316057	 -6.11388726	  0.20052057	 -0.00600000	  0.05813193	106.05321380	805.96224614	-54.02658969	 -0.19009192	 -0.00600000	  0.24722954	  0.00000000	  0.00000000	  0.00000000	  0.90000000	 -0.00600000	  0.20000000	  0.00000000	 -0.01975797	  0.00000000	  0.00000000	 -1.51789309	  0.00000000	  0.00000000	  0.00000000	  0.00000000
  0.01000000	 22.65722094	109.61134106	 -7.27125915	  0.20136011	 -0.00600000	  0.05850179	106.78247999	804.24942593	-53.57296317	 -0.18992572	 -0.00600000	  0.24717785	  0.00000000	  0.00000000	  0.00000000	  0.90000000	 -0.00600000	  0.20000000	  0.00000000	  0.01902240	  0.00000000	  0.00000000	 -1.46109822	  0.00000000	  0.00000000	  0.00000000	  0.00000000
  0.01083333	 22.68940107	115.56037486	 -8.40130996	  0.20213572	 -0.00600000	  0.05884107	107.50463498	802.44633407	-53.12702186	 -0.18975413	 -0.00600000	  0.24712549	  0.00000000	  0.00000000	  0.00000000	  0.90000000	 -0.00600000	  0.20000000	  0.00000000	  0.05762633	  0.00000000	  0.00000000	 -1.40938925	  0.00000000	  0.00000000	  0.00000000	  0.00000000
  0.01166667	 22.60318459	121.51124281	 -9.51052159	  0.20288610	 -0.00600000	  0.05918122	108.21901226	800.56250550	-52.68543744	 -0.18957865	 -0.00600000	  0.24707127	  0.00000000	  0.00000000	  0.00000000	  0.90000000	 -0.00600000	  0.20000000	  0.00000000	  0.09725416	  0.00000000	  0.00000000	 -1.36119450	  0.00000000	  0.00000000	  0.00000000	  0.00000000
  0.01250000	 22.39935233	127.45307862	-10.59979808	  0.20363595	 -0.00600000	  0.05953301	108.92549898	798.60715116	-52.24710269	 -0.18940197	 -0.00600000	  0.24701417	  0.00000000	  0.00000000	  0.00000000	  0.90000000	 -0.00600000	  0.20000000	  0.00000000	  0.13885665	  0.00000000	  0.00000000	 -1.31526866	  0.00000000	  0.00000000	  0.00000000	  0.00000000
  0.01333333	 22.07834154	133.37243655	-11.65982732	  0.20439043	 -0.00600000	  0.05988758	109.62363233	796.58869056	-51.81276762	 -0.18922659	 -0.00600000	  0.24695303	  0.00000000	  0.00000000	  0.00000000	  0.90000000	 -0.00600000	  0.20000000	  0.00000000	  0.18231862	  0.00000000	  0.00000000	 -1.27101813	  0.00000000	  0.00000000	  0.00000000	  0.00000000
  0.01416667	 21.63878743	139.25671986	-12.67259014	  0.20514117	 -0.00600000	  0.06022136	110.31197248	794.51301951	-51.38347382	 -0.18905321	 -0.00600000	  0.24688687	  0.00000000	  0.00000000	  0.00000000	  0.90000000	 -0.00600000	  0.20000000	  0.00000000	  0.22656519	  0.00000000	  0.00000000	 -1.22805773	  0.00000000	  0.00000000	  0.00000000	  0.00000000
  0.01500000	 21.08070375	145.09918221	-13.61791945	  0.20587742	 -0.00600000	  0.06050480	110.98769214	792.38098836	-50.95947549	 -0.18887998	 -0.00600000	  0.24681558	  0.00000000	  0.00000000	  0.00000000	  0.90000000	 -0.00600000	  0.20000000	  0.00000000	  0.27055189	  0.00000000	  0.00000000	 -1.18575972	  0.00000000	  0.00000000	  0.00000000	  0.00000000
  0.01583333	 20.40961258	150.90065794	-14.47984265	  0.20659042	 -0.00600000	  0.06071042	111.64707586	790.18757674	-50.54039583	 -0.18870378	 -0.00600000	  0.24673996	  0.00000000	  0.00000000	  0.00000000	  0.90000000	 -0.00600000	  0.20000000	  0.00000000	  0.31425244	  0.00000000	  0.00000000	 -1.14320503	  0.00000000	  0.00000000	  0.00000000	  0.00000000
  0.01666667	 19.63723933	156.66653973	-15.24913634	  0.20727082	 -0.00600000	  0.06081293	112.28781304	787.92513961	-50.12580478	 -0.18852346	 -0.00600000	  0.24666113	  0.00000000	  0.00000000	  0.00000000	  0.90000000	 -0.00600000	  0.20000000	  0.00000000	  0.35897538	  0.00000000	  0.00000000	 -1.09943492	  0.00000000	  0.00000000	  0.00000000	  0.00000000
  0.01750000	 18.77937905	162.40438330	-15.92289191	  0.20790859	 -0.00600000	  0.06079107	112.91065427	785.58848452	-49.71559319	 -0.18834204	 -0.00600000	  0.24657993	  0.00000000	  0.00000000	  0.00000000	  0.90000000	 -0.00600000	  0.20000000	  0.00000000	  0.40691297	  0.00000000	  0.00000000	 -1.05381505	  0.00000000	  0.00000000	  0.00000000	  0.00000000
  0.01833333	 17.85315020	168.12512697	-16.50268608	  0.20849773	 -0.00600000	  0.06063934	113.51793489	783.17704469	-49.31001902	 -0.18816501	 -0.00600000	  0.24649689	  0.00000000	  0.00000000	  0.00000000	  0.90000000	 -0.00600000	  0.20000000	  0.00000000	  0.45995466	  0.00000000	  0.00000000	 -1.00618518	  0.00000000	  0.00000000	  0.00000000	  0.00000000
  0.01916667	 16.87377604	173.84577329	-16.99249459	  0.20904120	 -0.00600000	  0.06037273	114.11171687	780.69291079	-48.90930091	 -0.18799701	 -0.00600000	  0.24641265	  0.00000000	  0.00000000	  0.00000000	  0.90000000	 -0.00600000	  0.20000000	  0.00000000	  0.51872952	  0.00000000	  0.00000000	 -0.95677174	  0.00000000	  0.00000000	  0.00000000	  0.00000000
  0.02000000	 15.85196862	179.59074104	-17.39841068	  0.20955354	 -0.00600000	  0.06001558	114.69410812	778.13710256	-48.51307161	 -0.18783988	 -0.00600000	  0.24632853	  0.00000000	  0.00000000	  0.00000000	  0.90000000	 -0.00600000	  0.20000000	  0.00000000	  0.58297984	  0.00000000	  0.00000000	 -0.90609991	  0.00000000	  0.00000000	  0.00000000	  0.00000000
  0.02083333	 14.79343262	185.38920358	-17.73053099	  0.21006088	 -0.00600000	  0.05959313	115.26787613	775.50833151	-48.12031656	 -0.18769212	 -0.00600000	  0.24624634	  0.00000000	  0.00000000	  0.00000000	  0.90000000	 -0.00600000	  0.20000000	  0.00000000	  0.65241960	  0.00000000	  0.00000000	 -0.85492558	  0.00000000	  0.00000000	  0.00000000	  0.00000000
  0.02166667	 13.69970472	191.26871290	-18.00435959	  0.21059815	 -0.00600000	  0.05913551	115.83609743	772.80550418	-47.72942398	 -0.18754952	 -0.00600000	  0.24616729	  0.00000000	  0.00000000	  0.00000000	  0.90000000	 -0.00600000	  0.20000000	  0.00000000	  0.72694022	  0.00000000	  0.00000000	 -0.80414825	  0.00000000	  0.00000000	  0.00000000	  0.00000000
